<svg xml:space="preserve" viewBox="317.52 276.48 444.96 524.88" version="1.1" xmlns:xlink="http://www.w3.org/1999/xlink" xmlns="http://www.w3.org/2000/svg" style="max-height: 500px" width="444.96" height="524.88">
<desc>Created with Fabric.js 5.2.4</desc>
<defs>
</defs>
<g id="b65d81bb-bc5c-4550-a3a1-1d8dbb8270a2" transform="matrix(1 0 0 1 540 540)">
<rect height="1080" width="1080" ry="0" rx="0" y="-540" x="-540" style="stroke: none; stroke-width: 1; stroke-dasharray: none; stroke-linecap: butt; stroke-dashoffset: 0; stroke-linejoin: miter; stroke-miterlimit: 4; fill: rgb(255,255,255); fill-rule: nonzero; opacity: 1; visibility: hidden;"/>
</g>
<g id="aff1f7cb-1eb4-46e2-9374-7d003a263f77" transform="matrix(1 0 0 1 540 540)">
</g>
<g id="a0463c37-cd08-4e4f-9349-0d58f6e9a64b" transform="matrix(1 0 0 1 540 540)">
<path stroke-linecap="round" d="M 333.187 237.405 C 365.94800000000004 213.512 387.28200000000004 174.844 387.28200000000004 131.28199999999998 C 387.282 58.893 328.389 0 256 0 C 183.611 0 124.718 58.893 124.718 131.282 C 124.718 174.844 146.051 213.512 178.813 237.40500000000003 C 97.373 268.57 39.385 347.531 39.385 439.795 C 39.385 479.60900000000004 71.776 512 111.59 512 L 400.41 512 C 440.22400000000005 512 472.615 479.609 472.615 439.795 C 472.615 347.531 414.627 268.57 333.187 237.405 z M 164.103 131.282 C 164.103 80.61000000000001 205.328 39.385000000000005 256 39.385000000000005 C 306.672 39.385000000000005 347.897 80.61000000000001 347.897 131.282 C 347.897 181.954 306.672 223.18 256 223.18 C 205.32799999999997 223.18 164.103 181.954 164.103 131.282 z M 400.41 472.615 L 111.59 472.615 C 93.493 472.615 78.77000000000001 457.892 78.77000000000001 439.794 C 78.77000000000001 342.068 158.274 262.563 256.001 262.563 C 353.72799999999995 262.563 433.23199999999997 342.067 433.23199999999997 439.794 C 433.231 457.892 418.508 472.615 400.41 472.615 z" transform="translate(-256, -256)" style="stroke: rgb(0,0,0); stroke-width: 0; stroke-dasharray: none; stroke-linecap: butt; stroke-dashoffset: 0; stroke-linejoin: miter; stroke-miterlimit: 4; fill: rgb(0,0,0); fill-rule: nonzero; opacity: 1;"/>
</g>
<g id="8cda980b-7b5b-4aca-a227-733e432a2f72" transform="matrix(2.99 0 0 2.99 540 414.24)">
<circle r="35" cy="0" cx="0" style="stroke: rgb(0,0,0); stroke-width: 0; stroke-dasharray: none; stroke-linecap: butt; stroke-dashoffset: 0; stroke-linejoin: miter; stroke-miterlimit: 4; fill: rgb(0,0,0); fill-rule: nonzero; opacity: 1;"/>
</g>
<g id="3a3a2cb6-f0d3-4ad4-800c-ae4fdb3e1c58" transform="matrix(4.73 0 0 2.79 540 679.75)">
<rect height="66.167" width="66.167" ry="0" rx="0" y="-33.0835" x="-33.0835" style="stroke: rgb(0,0,0); stroke-width: 0; stroke-dasharray: none; stroke-linecap: butt; stroke-dashoffset: 0; stroke-linejoin: miter; stroke-miterlimit: 4; fill: rgb(0,0,0); fill-rule: nonzero; opacity: 1;"/>
</g>
<g id="b4b3de00-f0d9-429b-91de-e3e7a10517e6" transform="matrix(2.33 0 0 2.33 426.02 696.75)">
<circle r="35" cy="0" cx="0" style="stroke: rgb(0,0,0); stroke-width: 0; stroke-dasharray: none; stroke-linecap: butt; stroke-dashoffset: 0; stroke-linejoin: miter; stroke-miterlimit: 4; fill: rgb(0,0,0); fill-rule: nonzero; opacity: 1;"/>
</g>
<g id="b4b3de00-f0d9-429b-91de-e3e7a10517e6" transform="matrix(2.33 0 0 2.33 652.15 700.46)">
<circle r="35" cy="0" cx="0" style="stroke: rgb(0,0,0); stroke-width: 0; stroke-dasharray: none; stroke-linecap: butt; stroke-dashoffset: 0; stroke-linejoin: miter; stroke-miterlimit: 4; fill: rgb(0,0,0); fill-rule: nonzero; opacity: 1;"/>
</g>
<g id="b4b3de00-f0d9-429b-91de-e3e7a10517e6" transform="matrix(2.33 0 0 2.33 495.34 616.36)">
<circle r="35" cy="0" cx="0" style="stroke: rgb(0,0,0); stroke-width: 0; stroke-dasharray: none; stroke-linecap: butt; stroke-dashoffset: 0; stroke-linejoin: miter; stroke-miterlimit: 4; fill: rgb(0,0,0); fill-rule: nonzero; opacity: 1;"/>
</g>
<g id="b4b3de00-f0d9-429b-91de-e3e7a10517e6" transform="matrix(2.33 0 0 2.33 575.91 613.53)">
<circle r="35" cy="0" cx="0" style="stroke: rgb(0,0,0); stroke-width: 0; stroke-dasharray: none; stroke-linecap: butt; stroke-dashoffset: 0; stroke-linejoin: miter; stroke-miterlimit: 4; fill: rgb(0,0,0); fill-rule: nonzero; opacity: 1;"/>
</g>
</svg>